<?xml version="1.0" encoding="UTF-8" standalone="no"?>
<!DOCTYPE svg PUBLIC "-//W3C//DTD SVG 1.1//EN" "http://www.w3.org/Graphics/SVG/1.1/DTD/svg11.dtd">
<!-- Created with Vectornator (http://vectornator.io/) -->
<svg height="100%" stroke-miterlimit="10" style="fill-rule:nonzero;clip-rule:evenodd;stroke-linecap:round;stroke-linejoin:round;" version="1.1" viewBox="0 0 960 960" width="100%" xml:space="preserve" xmlns="http://www.w3.org/2000/svg" xmlns:vectornator="http://vectornator.io" xmlns:xlink="http://www.w3.org/1999/xlink">
<defs/>
<g id="Untitled" vectornator:layerName="Untitled">
<path d="M295 640C293 637.333 299.5 626.833 314.5 608.5C329.5 590.167 346.667 570.667 366 550C388 525.333 413.667 498 443 468C451 456 462 450 476 450C490 450 501.667 455.333 511 466C519 476.667 522 488.833 520 502.5C518 516.167 510.667 526 498 532C461.333 554 428.667 573.333 400 590C374.667 604 351.333 616.5 330 627.5C308.667 638.5 297 642.667 295 640ZM430 920C426.667 920 423.333 919.333 420 918C416.667 916.667 414 914.333 412 911C409.333 907 406.667 901.5 404 894.5C401.333 887.5 400 879.333 400 870C400 864 400.333 858.5 401 853.5C401.667 848.5 402.667 843.333 404 838C386 834.667 370.833 825.667 358.5 811C346.167 796.333 340 779.333 340 760C340 757.333 341 750.333 343 739C293.667 721.667 253.833 694 223.5 656C193.167 618 173.667 569 165 509C161.667 512.333 158 515 154 517C150 519 145.333 520 140 520C130 520 117.5 512.5 102.5 497.5C87.5 482.5 80 450 80 400C80 354 93.5 312.5 120.5 275.5C147.5 238.5 174 220 200 220C208.667 220 214.167 223.833 216.5 231.5C218.833 239.167 220 246.667 220 254C245.333 218 277.167 188.333 315.5 165C353.833 141.667 396 127.333 442 122C446 102.667 455.667 87.5 471 76.5C486.333 65.5 502.667 60 520 60L520 100C522.667 96 526 92.6667 530 90C533.333 87.3333 537.5 85 542.5 83C547.5 81 553.333 80 560 80C566.667 80 572.5 81 577.5 83C582.5 85 586.667 87.3333 590 90C594 92.6667 597.333 96 600 100C590 100 581.667 103 575 109C568.333 115 564 122.333 562 131C598 140.333 631.333 155.667 662 177C692.667 198.333 718.667 224 740 254C740 246.667 741.167 239.167 743.5 231.5C745.833 223.833 751.333 220 760 220C786 220 812.5 238.5 839.5 275.5C866.5 312.5 880 354 880 400C880 450 872.5 482.5 857.5 497.5C842.5 512.5 830 520 820 520C815.333 520 810.833 519.167 806.5 517.5C802.167 515.833 798.333 513.333 795 510C785.667 576.667 762.833 629.833 726.5 669.5C690.167 709.167 642 735.667 582 749C584 758.333 588.5 765.833 595.5 771.5C602.5 777.167 610.667 780 620 780L643 780C647.667 780 651.667 781.333 655 784C658.333 786.667 660.667 790 662 794C665.333 804.667 671.167 814.667 679.5 824C687.833 833.333 695.667 841 703 847C708.333 851.667 710.833 857.167 710.5 863.5C710.167 869.833 707.333 874.667 702 878C694.667 883.333 685.333 888 674 892C662.667 896 648 898.667 630 900C626.667 900 623.333 899.333 620 898C616.667 896.667 614 894.333 612 891C609.333 887 606.667 881.5 604 874.5C601.333 867.5 600 859.333 600 850C600 844 600.333 838.5 601 833.5C601.667 828.5 602.667 823.333 604 818C588 814.667 574.5 807.333 563.5 796C552.5 784.667 545.333 771.333 542 756C532 757.333 522 758.333 512 759C502 759.667 491.333 760 480 760C462.667 760 445.833 759.167 429.5 757.5C413.167 755.833 397.333 753.333 382 750L380 760C380 771.333 383.833 780.833 391.5 788.5C399.167 796.167 408.667 800 420 800L443 800C447.667 800 451.667 801.333 455 804C458.333 806.667 460.667 810 462 814C465.333 824.667 471.167 834.667 479.5 844C487.833 853.333 495.667 861 503 867C508.333 871.667 510.833 877.167 510.5 883.5C510.167 889.833 507.333 894.667 502 898C494.667 903.333 485.333 908 474 912C462.667 916 448 918.667 430 920ZM750 529C753.333 515.667 755.833 501.667 757.5 487C759.167 472.333 760 456.667 760 440C760 362.667 732.667 296.667 678 242C623.333 187.333 557.333 160 480 160C402.667 160 336.667 187.333 282 242C227.333 296.667 200 362.667 200 440C200 456 200.833 471.333 202.5 486C204.167 500.667 206.667 514.667 210 528C213.333 514.667 217.833 501.5 223.5 488.5C229.167 475.5 235.667 463.333 243 452C239 442.667 235.833 432.833 233.5 422.5C231.167 412.167 230 401.333 230 390C230 348 244.5 312.5 273.5 283.5C302.5 254.5 338 240 380 240C399.333 240 417.5 243.5 434.5 250.5C451.5 257.5 466.667 267 480 279C493.333 267 508.5 257.5 525.5 250.5C542.5 243.5 560.667 240 580 240C622 240 657.5 254.5 686.5 283.5C715.5 312.5 730 348 730 390C730 401.333 728.833 412.167 726.5 422.5C724.167 432.833 720.667 442.667 716 452C723.333 463.333 730 475.5 736 488.5C742 501.5 746.667 515 750 529ZM480 720C538 720 586.833 711 626.5 693C666.167 675 697 648 719 612C719 610 719.167 608 719.5 606C719.833 604 720 602 720 600C720 580 717.667 560.667 713 542C708.333 523.333 701.333 505.667 692 489C678 504.333 661.5 516.667 642.5 526C623.5 535.333 602.667 540 580 540C574.667 540 569.333 539.667 564 539C558.667 538.333 553.333 537.333 548 536C551.333 531.333 553.833 526.5 555.5 521.5C557.167 516.5 558.333 511.333 559 506C559.667 504.667 560 503.333 560 502L560 498C563.333 498.667 566.667 499.167 570 499.5C573.333 499.833 576.667 500 580 500C610.667 500 636.667 489.333 658 468C679.333 446.667 690 420.667 690 390C690 359.333 679.333 333.333 658 312C636.667 290.667 610.667 280 580 280C566.667 280 553.667 282.5 541 287.5C528.333 292.5 517 299.667 507 309L480 333L453 309C443 299.667 431.667 292.5 419 287.5C406.333 282.5 393.333 280 380 280C349.333 280 323.333 290.667 302 312C280.667 333.333 270 359.333 270 390C270 417.333 278.5 440.833 295.5 460.5C312.5 480.167 333.667 492.667 359 498L329 531C317 526.333 305.833 520.5 295.5 513.5C285.167 506.5 276 498.333 268 489C258.667 505.667 251.667 523.333 247 542C242.333 560.667 240 580 240 600L240 610C262.667 646 294 673.333 334 692C374 710.667 422.667 720 480 720ZM580 460C563.333 460 549.167 453.167 537.5 439.5C525.833 425.833 520 409.333 520 390C520 370.667 525.833 354.167 537.5 340.5C549.167 326.833 563.333 320 580 320C596.667 320 610.833 326.833 622.5 340.5C634.167 354.167 640 370.667 640 390C640 409.333 634.167 425.833 622.5 439.5C610.833 453.167 596.667 460 580 460ZM595 370C599.667 370 603.333 368.5 606 365.5C608.667 362.5 610 359 610 355C610 351 608.5 347.5 605.5 344.5C602.5 341.5 599 340 595 340C590.333 340 586.667 341.5 584 344.5C581.333 347.5 580 351 580 355C580 359.667 581.5 363.333 584.5 366C587.5 368.667 591 370 595 370ZM380 460C363.333 460 349.167 453.167 337.5 439.5C325.833 425.833 320 409.333 320 390C320 370.667 325.833 354.167 337.5 340.5C349.167 326.833 363.333 320 380 320C396.667 320 410.833 326.833 422.5 340.5C434.167 354.167 440 370.667 440 390C440 409.333 434.167 425.833 422.5 439.5C410.833 453.167 396.667 460 380 460ZM395 370C399.667 370 403.333 368.5 406 365.5C408.667 362.5 410 359 410 355C410 351 408.5 347.5 405.5 344.5C402.5 341.5 399 340 395 340C390.333 340 386.667 341.5 384 344.5C381.333 347.5 380 351 380 355C380 359.667 381.5 363.333 384.5 366C387.5 368.667 391 370 395 370Z" fill="#0d6efd" fill-rule="nonzero" opacity="1" stroke="none" vectornator:layerName="path"/>
</g>
</svg>
